{"title":"Cinemawala (2016) - 720p - DVDRip - x264 - DTS - ESub - DDR","uid":15455007,"size":3020248427,"categoryP":"video","categoryS":"hd___movies","magnet":"?xt=urn:btih:d5e00c335a8ce68711dd77d594b04e180f6260e6&amp;dn=Cinemawala+%282016%29+-+720p+-+DVDRip+-+x264+-+DTS+-+ESub+-+DDR&amp;tr=udp%3A%2F%2Ftracker.leechers-paradise.org%3A6969&amp;tr=udp%3A%2F%2Fzer0day.ch%3A1337&amp;tr=udp%3A%2F%2Fopen.demonii.com%3A1337&amp;tr=udp%3A%2F%2Ftracker.coppersurfer.tk%3A6969&amp;tr=udp%3A%2F%2Fexodus.desync.com%3A6969","seeders":3,"leechers":5,"uploader":"SaM","files":15,"time":1469977928,"description":"(A film by Kaushik Ganguly)\r\n\r\n\r\n\r\n\r\nUpscaled DVD Rip - x264 - Eng Sub - Chapters\r\n\r\nFull 5.1 DTS - MKV - 2.75 GB\r\n\r\n*2016*\r\n\r\n\r\n\r\n! || |= ®\r\n\r\n\r\nFormat : Matroska\r\nFormat version : Version 4 / Version 2\r\nFile size : 2.76 GiB\r\nDuration : 1h 44mn\r\nOverall bit rate : 3 772 Kbps\r\nMovie name : Digital Desi Releasers [DDR] - Cinemawala (2016)\r\nEncoded date : UTC 2016-07-29 21:25:56\r\nWriting application : mkvmerge v9.2.0 ('Photograph') 64bit\r\nWriting library : libebml v1.3.3 + libmatroska v1.4.4\r\n\r\nVideo\r\nID : 1\r\nFormat : AVC\r\nFormat/Info : Advanced Video Codec\r\nFormat profile :   \r\nFormat settings, CABAC : Yes\r\nFormat settings, ReFrames : 8 frames\r\nCodec ID : V_MPEG4/ISO/AVC\r\nDuration : 1h 44mn\r\nBit rate : 3 015 Kbps\r\nWidth : 1 280 pixels\r\nHeight : 544 pixels\r\nDisplay aspect ratio : 2.35:1\r\nFrame rate mode : Constant\r\nFrame rate : 23.976 (24000/1001) fps\r\nColor space : YUV\r\nChroma subsampling : 4:2:0\r\nBit depth : 8 bits\r\nScan type : Progressive\r\nBits/(Pixel*Frame) : 0.181\r\nStream size : 2.20 GiB (80%)\r\nWriting library : x264 core 148 r2692 64f4e24\r\nEncoding settings : cabac=1 / ref=8 / deblock=1:0:0 / analyse=0x3:0x133 / me=umh / subme=9 / psy=1 / psy_rd=1.00:0.00 / mixed_ref=1 / me_range=32 / chroma_me=1 / trellis=2 / 8x8dct=1 / cqm=0 / deadzone=21,11 / fast_pskip=0 / chroma_qp_offset=-2 / threads=12 / lookahead_threads=1 / sliced_threads=0 / nr=0 / decimate=1 / interlaced=0 / bluray_compat=0 / constrained_intra=0 / bframes=3 / b_pyramid=2 / b_adapt=2 / b_bias=0 / direct=3 / weightb=1 / open_gop=0 / weightp=2 / keyint=230 / keyint_min=23 / scenecut=40 / intra_refresh=0 / rc_lookahead=60 / rc=2pass / mbtree=1 / bitrate=3015 / ratetol=1.0 / qcomp=0.60 / qpmin=0 / qpmax=69 / qpstep=4 / cplxblur=20.0 / qblur=0.5 / vbv_maxrate=24000 / vbv_bufsize=24000 / nal_hrd=none / filler=0 / ip_ratio=1.40 / aq=1:1.00\r\nLanguage : Bengali\r\nDefault : Yes\r\nForced : No\r\nColor range : Limited\r\nColor primaries : BT.709\r\nTransfer characteristics : BT.709\r\nMatrix coefficients : BT.709\r\n\r\nAudio\r\nID : 2\r\nFormat : DTS\r\nFormat/Info : Digital Theater Systems\r\nMode : 16\r\nFormat settings, Endianness : Big\r\nCodec ID : A_DTS\r\nDuration : 1h 44mn\r\nBit rate mode : Constant\r\nBit rate : 755 Kbps\r\nChannel(s) : 6 channels\r\nChannel positions : Front: L C R, Side: L R, LFE\r\nSampling rate : 48.0 KHz\r\nFrame rate : 93.750 fps (512 spf)\r\nBit depth : 24 bits\r\nCompression mode : Lossy\r\nStream size : 565 MiB (20%)\r\nLanguage : Bengali\r\nDefault : Yes\r\nForced : No\r\n\r\nText\r\nID : 3\r\nFormat : VobSub\r\nMuxing mode : zlib\r\nCodec ID : S_VOBSUB\r\nCodec ID/Info : Picture based subtitle format used on DVDs\r\nDuration : 1h 39mn\r\nBit rate : 1 286 bps\r\nCount of elements : 912\r\nStream size : 936 KiB (0%)\r\nLanguage : English\r\nDefault : Yes\r\nForced : No\r\n\r\nMenu\r\n00:00:00.000 : en:Chapter 01\r\n00:14:44.000 : en:Chapter 02\r\n00:33:53.000 : en:Chapter 03\r\n00:58:55.500 : en:Chapter 04\r\n01:01:32.000 : en:Chapter 05\r\n01:22:58.000 : en:Chapter 06\r\n01:25:10.000 : en:Chapter 07\r\n01:32:40.000 : en:Chapter 08\r\n01:35:14.500 : en:Chapter 09\r\n01:41:44.500 : en:Chapter 10\r\n01:44:33.700 : en:Chapter 11\r\n \nhttp://extraimago.com/image/w8ot \nhttp://extraimago.com/image/w8oo \nhttp://extraimago.com/image/w8ok \nhttp://extraimago.com/image/w8oH \nhttp://extraimago.com/image/w8oF \nhttp://extraimago.com/image/w8oD \nhttp://extraimago.com/image/w8o5 \nhttp://extraimago.com/image/w8og \nhttp://extraimago.com/image/w8oX \nhttp://extraimago.com/image/w8oP \nhttp://extraimago.com/image/w8oG","torrent":{"xt":"urn:btih:d5e00c335a8ce68711dd77d594b04e180f6260e6","amp;dn":"Cinemawala+%282016%29+-+720p+-+DVDRip+-+x264+-+DTS+-+ESub+-+DDR","amp;tr":["udp%3A%2F%2Ftracker.leechers-paradise.org%3A6969","udp%3A%2F%2Fzer0day.ch%3A1337","udp%3A%2F%2Fopen.demonii.com%3A1337","udp%3A%2F%2Ftracker.coppersurfer.tk%3A6969","udp%3A%2F%2Fexodus.desync.com%3A6969"],"infoHash":"d5e00c335a8ce68711dd77d594b04e180f6260e6","infoHashBuffer":{"type":"Buffer","data":[213,224,12,51,90,140,230,135,17,221,119,213,148,176,78,24,15,98,96,230]},"announce":[],"urlList":[]}}